<?xml version="1.0" encoding="UTF-8" standalone="no"?>
<svg width="100px" height="100px" viewBox="0 0 100 100" version="1.1" xmlns="http://www.w3.org/2000/svg" xmlns:xlink="http://www.w3.org/1999/xlink" xmlns:sketch="http://www.bohemiancoding.com/sketch/ns">
    <!-- Generator: Sketch 3.4.4 (17249) - http://www.bohemiancoding.com/sketch -->
    <title>开心网</title>
    <desc>Created with Sketch.</desc>
    <defs></defs>
    <g id="Page-1" stroke="none" stroke-width="1" fill="none" fill-rule="evenodd" sketch:type="MSPage">
        <g id="分享" sketch:type="MSArtboardGroup" transform="translate(-272.000000, -1470.000000)">
            <g id="Group" sketch:type="MSLayerGroup" transform="translate(20.000000, 1248.000000)">
                <g id="开心网" transform="translate(252.000000, 222.000000)" sketch:type="MSShapeGroup">
                    <g id="微信">
                        <circle id="Oval-7-Copy" fill="#FED100" cx="50" cy="50" r="50"></circle>
                        <g id="开心网" transform="translate(27.000000, 26.000000)" fill="#FFFFFF">
                            <g id="Group">
                                <path d="M18.6985388,16.4511741 C18.0961295,18.2613991 18.0961295,19.4662178 19.3069423,20.0686272 C19.9063545,20.0686272 21.1141703,18.8638085 21.7135826,17.6589898 C22.3159919,15.8517618 21.7135826,14.6469431 21.1141703,14.0415367 C19.9063545,14.0415368 19.3069423,15.2493525 18.6985388,16.4511741 L18.6985388,16.4511741 Z M27.1322695,17.0565805 C26.5328572,17.0565805 25.9304479,17.6589898 25.3250415,18.8638085 C24.7256292,20.0686272 25.3250415,21.2764429 25.9274508,21.8758552 C26.5298602,21.8758552 27.1292724,21.2734459 27.7346789,20.0656301 C28.3370882,18.8638085 28.3370882,17.0565805 27.1322695,17.0565805 L27.1322695,17.0565805 Z M42.1895059,18.2613991 C32.5509565,18.2613991 33.7587722,14.0415367 33.7587722,14.0415367 L32.5509565,6.20721825 C31.3491349,-1.6271002 25.9274508,0.180127828 25.9274508,0.180127828 C22.3159919,0.78553425 16.8943079,6.2072183 15.6924862,8.01744333 C13.8852582,9.82766841 13.2828489,9.82766841 9.66839287,8.01744333 C-0.572565844,1.99334995 0.0298434844,9.22226198 0.0298434844,9.22226198 C0.0298434844,17.6589898 4.24670883,23.0806738 6.05393686,25.4933082 C4.24670883,26.0957175 4.24670883,40.5565387 4.24670883,40.5565387 C6.05393686,49.5956758 12.6774425,44.7764011 12.6774425,44.7764011 L19.3039452,39.9541294 L25.8495273,45.9842169 C36.6898983,51.4059009 34.8047467,44.1739918 34.8047467,44.1739918 L34.8047467,32.7252173 C40.3433161,31.5203987 45.120632,26.701124 45.120632,26.701124 C52.9519533,18.2613991 42.1895059,18.2613991 42.1895059,18.2613991 L42.1895059,18.2613991 Z M9.0659835,23.0806739 C8.46357417,23.0806739 7.25875547,21.8758552 7.25875547,20.6710365 C7.25875547,19.4662178 8.46357412,18.8608114 9.0659835,18.8608114 C10.2708022,18.8608114 10.8732115,19.4632208 10.8732115,20.6710365 C10.8732115,21.8758552 10.2678052,23.0806739 9.0659835,23.0806739 L9.0659835,23.0806739 Z M11.4726238,22.4782645 C11.4726238,22.4782645 11.4726238,38.7463137 28.3370882,29.1047672 C10.2678052,42.9661761 11.4726238,24.2884896 11.4726238,22.4782645 L11.4726238,22.4782645 Z M29.5419069,18.8638085 C29.5419069,18.8638085 28.9424946,24.8908989 25.9304479,27.3005363 C21.1141703,30.3125829 20.5087639,23.6860802 20.5087639,23.6860802 C20.5087639,23.6860802 12.6804396,27.9029456 14.4846705,18.2613991 C14.4846705,18.2613991 15.6894892,12.836718 18.6985388,12.2343087 C21.7105855,11.0294901 23.5208106,13.4391274 23.5208106,15.2493525 C23.5208106,15.2493525 30.1473133,11.0294901 29.5419069,18.8638085 L29.5419069,18.8638085 Z M32.5539536,30.9179894 C31.352132,30.9179894 30.1473133,29.7131707 30.1473133,28.5023579 C30.1473133,27.3005363 31.3491349,26.0927205 32.5539536,26.0927205 C33.1563629,26.0927205 34.3641787,27.2975392 34.3641787,28.5023579 C34.3611816,29.7101736 33.1563629,30.9179894 32.5539536,30.9179894 L32.5539536,30.9179894 Z" id="Shape"></path>
                            </g>
                        </g>
                    </g>
                </g>
            </g>
        </g>
    </g>
</svg>