<?xml version="1.0" encoding="UTF-8" standalone="no"?>
<svg width="25px" height="23px" viewBox="0 0 25 23" version="1.1" xmlns="http://www.w3.org/2000/svg" xmlns:xlink="http://www.w3.org/1999/xlink" xmlns:sketch="http://www.bohemiancoding.com/sketch/ns">
    <!-- Generator: Sketch 3.4.3 (16044) - http://www.bohemiancoding.com/sketch -->
    <title>iconfont-xihuan</title>
    <desc>Created with Sketch.</desc>
    <defs></defs>
    <g id="Page-1" stroke="none" stroke-width="1" fill="none" fill-rule="evenodd" sketch:type="MSPage">
        <g id="商品详情" sketch:type="MSArtboardGroup" transform="translate(-240.000000, -1702.000000)" fill="#717171">
            <g id="底部栏" sketch:type="MSLayerGroup" transform="translate(0.000000, 1668.000000)">
                <g id="先收藏-copy" transform="translate(240.000000, 34.000000)" sketch:type="MSShapeGroup">
                    <g id="iconfont-xihuan">
                        <g id="图形">
                            <path d="M12.499812,22.9932971 C11.9204574,22.9932971 11.3645677,22.8066357 10.8925752,22.4536843 C3.07659774,16.60462 0.335338346,13.2373214 0.0281328321,9.10865714 L0.0254072682,9.07169286 L0.0252192982,7.61260571 L0.0281641604,7.57452429 C0.392387218,2.81493714 3.42694236,0.353805714 6.09229323,0.0814857143 C6.47380952,0.0410057143 6.85736216,0.0201742857 7.22913534,0.0201742857 C9.81757519,0.0201742857 11.2848684,1.09233571 12.500094,2.44273143 C13.7159461,1.09220429 15.183114,0.0201742857 17.7695802,0.0201742857 C18.1413534,0.0201742857 18.5248747,0.0410057143 18.9100564,0.0817157143 C21.5720551,0.353805714 24.6067356,2.81250571 24.9714286,7.56663857 L24.9744048,7.60478571 L24.9748434,9.06410286 L24.9720238,9.10136286 C24.6649749,13.2347257 21.9232456,16.6038314 14.1063283,22.4534214 C13.6349311,22.8067014 13.0792293,22.9933629 12.4997807,22.9933629 L12.499812,22.9932971 Z M2.02593985,8.98830143 C2.29348371,12.36687 4.83223684,15.3407371 12.0543546,20.7453429 C12.185119,20.8431586 12.3392544,20.89481 12.4998434,20.89481 C12.6598371,20.89481 12.8135652,20.8431257 12.9438596,20.7455729 C20.1676065,15.3399814 22.7067669,12.3646686 22.9743421,8.98113857 L22.9740602,7.68998429 C22.689317,4.16815857 20.5685777,2.35970143 18.712218,2.16985286 C18.3895363,2.13578 18.0732769,2.11862857 17.7695489,2.11862857 C15.5044173,2.11862857 14.5158208,3.14232571 13.2662281,4.70419 L12.5000313,5.66279714 L11.7336153,4.70399286 C10.4849311,3.14232571 9.49658521,2.11862857 7.22916667,2.11862857 C6.9252193,2.11862857 6.6093985,2.13581286 6.29013158,2.16965571 C4.43060777,2.3598 2.31005639,4.17009714 2.02584586,7.69718 L2.02603383,8.98826857 L2.02593985,8.98830143 Z" id="Shape"></path>
                        </g>
                    </g>
                </g>
            </g>
        </g>
    </g>
</svg>