<?xml version="1.0" encoding="UTF-8" standalone="no"?>
<svg width="100px" height="100px" viewBox="0 0 100 100" version="1.1" xmlns="http://www.w3.org/2000/svg" xmlns:xlink="http://www.w3.org/1999/xlink" xmlns:sketch="http://www.bohemiancoding.com/sketch/ns">
    <!-- Generator: Sketch 3.4.4 (17249) - http://www.bohemiancoding.com/sketch -->
    <title>qq空间</title>
    <desc>Created with Sketch.</desc>
    <defs></defs>
    <g id="Page-1" stroke="none" stroke-width="1" fill="none" fill-rule="evenodd" sketch:type="MSPage">
        <g id="分享" sketch:type="MSArtboardGroup" transform="translate(-86.000000, -1470.000000)">
            <g id="qq空间" sketch:type="MSLayerGroup" transform="translate(86.000000, 1470.000000)">
                <circle id="Oval-112" fill="#F5BE3F" sketch:type="MSShapeGroup" cx="50" cy="50" r="50"></circle>
                <g id="iconfont-qqkongjian" transform="translate(24.285714, 22.857143)" fill="#FFFFFF" sketch:type="MSShapeGroup">
                    <path d="M38.248649,21.3103618 L22.9143173,32.4854038 C22.9143173,32.4854038 29.0684531,33.4130317 38.3500101,33.3054971 L37.9276409,31.457556 L51.152464,19.8171327 C51.3955812,19.6030136 51.4888072,19.2622659 51.3892227,18.9515367 C51.2897317,18.6408075 51.0170665,18.4203237 50.6968065,18.3930601 L33.2622234,16.8722824 L26.4506428,0.496539769 C26.3259985,0.195880029 26.03538,0 25.7142784,0 C25.3931768,0 25.1026519,0.195880029 24.9780076,0.496539769 L18.166427,16.8722824 L0.731656911,18.3929651 C0.411490346,18.4203237 0.138825162,18.6407125 0.0393341569,18.9514417 C-0.0602503769,19.2621709 0.0330692304,19.6029186 0.276092835,19.8170377 L13.5010095,31.457461 L9.53689136,48.7745108 C9.46423674,49.0915097 9.58532777,49.4231379 9.84536957,49.616358 C10.1063465,49.8057784 10.4534429,49.8204076 10.7296613,49.6527412 L25.7142784,40.4723128 L40.698802,49.6528362 C40.827093,49.7331071 40.9696906,49.7695853 41.1122881,49.7695853 C41.2781688,49.7695853 41.4433014,49.7185728 41.5830938,49.616548 C41.8432291,49.4233278 41.9643201,49.0916997 41.8916655,48.7747008 L38.7572313,35.0803869 C40.1015754,34.3934768 41.5822522,33.2308309 41.5822522,33.2308309 C41.5822522,33.2308309 35.714153,36.1428129 14.6472132,34.7206402 L29.9152488,23.4781516 C29.9152488,23.4781516 29.315217,22.5297198 10.1809648,21.8527842 C8.90020502,21.8069965 25.7805746,18.6007196 38.248649,21.3103618 L38.248649,21.3103618 Z" id="Shape"></path>
                </g>
            </g>
        </g>
    </g>
</svg>