<?xml version="1.0" encoding="UTF-8" standalone="no"?>
<svg width="100px" height="100px" viewBox="0 0 100 100" version="1.1" xmlns="http://www.w3.org/2000/svg" xmlns:xlink="http://www.w3.org/1999/xlink" xmlns:sketch="http://www.bohemiancoding.com/sketch/ns">
    <!-- Generator: Sketch 3.4.4 (17249) - http://www.bohemiancoding.com/sketch -->
    <title>微信</title>
    <desc>Created with Sketch.</desc>
    <defs></defs>
    <g id="Page-1" stroke="none" stroke-width="1" fill="none" fill-rule="evenodd" sketch:type="MSPage">
        <g id="分享" sketch:type="MSArtboardGroup" transform="translate(-272.000000, -1293.000000)">
            <g id="微信" sketch:type="MSLayerGroup" transform="translate(272.000000, 1293.000000)">
                <g id="Page-1" sketch:type="MSShapeGroup">
                    <g>
                        <g id="未登录状态">
                            <g id="微信">
                                <circle id="Oval-7-Copy" fill="#9DCB47" cx="50" cy="50" r="50"></circle>
                                <g id="iconfont-weixin" transform="translate(28.888889, 31.111111)" fill="#FFFFFF">
                                    <path d="M33.555094,11.7023256 C34.1185554,11.7023256 34.6820167,11.7395349 35.245478,11.7953489 C33.7299613,5.02325584 26.1718076,2.53765263e-15 17.5450203,2.53765263e-15 C7.90788841,2.53765263e-15 0,6.28837211 0,14.2883721 C0,18.9023256 2.62300969,22.6976744 7.01412213,25.6372093 L5.26544899,30.6976744 L11.4052346,27.7395349 C13.6007908,28.1488373 15.3688936,28.5767443 17.5450201,28.5767443 C18.0890519,28.5767443 18.6330834,28.5581396 19.1771151,28.5023256 C18.8273804,27.3860466 18.6330834,26.1953489 18.6330834,24.9860466 C18.6330834,17.655814 25.2197521,11.7023256 33.555094,11.7023256 L33.555094,11.7023256 L33.555094,11.7023256 Z M24.1122591,7.14418609 C25.4334789,7.14418609 26.3078154,7.98139539 26.3078154,9.24651166 C26.3078154,10.5116279 25.4334789,11.3488372 24.1122591,11.3488372 C22.7910396,11.3488372 21.4698199,10.5116279 21.4698199,9.24651166 C21.4892496,7.98139539 22.8104693,7.14418609 24.1122591,7.14418609 L24.1122591,7.14418609 L24.1122591,7.14418609 Z M11.832688,11.3488372 C10.5114684,11.3488372 9.19024867,10.5116279 9.19024867,9.24651166 C9.19024867,7.98139539 10.5114684,7.14418609 11.832688,7.14418609 C13.1539077,7.14418609 14.0282443,7.98139539 14.0282443,9.24651166 C14.0282443,10.4930233 13.1539077,11.3488372 11.832688,11.3488372 L11.832688,11.3488372 L11.832688,11.3488372 Z" id="Shape"></path>
                                    <path d="M48.8888889,25.2636821 C48.8888889,18.2326024 41.936823,12.5064599 34.118156,12.5064599 C25.8373019,12.5064599 19.3281654,18.2326024 19.3281654,25.2636821 C19.3281654,32.3142384 25.8373019,38.0209043 34.118156,38.0209043 C35.8513581,38.0209043 37.6038179,37.5729407 39.3370199,37.1444539 L44.1129544,39.7932817 L42.803424,35.3915531 C46.2890859,32.7427253 48.8888889,29.2174471 48.8888889,25.2636821 L48.8888889,25.2636821 L48.8888889,25.2636821 Z M29.3229637,23.0628179 C28.4563627,23.0628179 27.5897617,22.1863674 27.5897617,21.309917 C27.5897617,20.4334667 28.4563627,19.5570163 29.3229637,19.5570163 C30.6324941,19.5570163 31.4990951,20.4334666 31.4990951,21.309917 C31.4990951,22.1863674 30.6324941,23.0628179 29.3229637,23.0628179 L29.3229637,23.0628179 L29.3229637,23.0628179 Z M38.8940906,23.0628179 C38.0274896,23.0628179 37.1608884,22.1863674 37.1608884,21.309917 C37.1608884,20.4334667 38.0274894,19.5570163 38.8940906,19.5570163 C40.2036209,19.5570163 41.070222,20.4334666 41.070222,21.309917 C41.070222,22.1863674 40.1843631,23.0628179 38.8940906,23.0628179 L38.8940906,23.0628179 L38.8940906,23.0628179 Z" id="Shape"></path>
                                </g>
                            </g>
                        </g>
                    </g>
                </g>
            </g>
        </g>
    </g>
</svg>