<?xml version="1.0" encoding="UTF-8" standalone="no"?>
<svg width="23px" height="27px" viewBox="0 0 23 27" version="1.1" xmlns="http://www.w3.org/2000/svg" xmlns:xlink="http://www.w3.org/1999/xlink" xmlns:sketch="http://www.bohemiancoding.com/sketch/ns">
    <!-- Generator: Sketch 3.4.3 (16044) - http://www.bohemiancoding.com/sketch -->
    <title>iconfont-fenxiang</title>
    <desc>Created with Sketch.</desc>
    <defs></defs>
    <g id="Page-1" stroke="none" stroke-width="1" fill="none" fill-rule="evenodd" sketch:type="MSPage">
        <g id="商品详情" sketch:type="MSArtboardGroup" transform="translate(-43.000000, -1693.000000)" fill="#717171">
            <g id="底部栏" sketch:type="MSLayerGroup" transform="translate(0.000000, 1661.000000)">
                <g id="咨询客服-" transform="translate(43.000000, 32.000000)" sketch:type="MSShapeGroup">
                    <g id="iconfont-fenxiang">
                        <path d="M19.1755684,19.2828769 C18.1103015,19.2828769 17.1461989,19.7265985 16.45199,20.4376264 L7.21271656,15.2607918 C7.48340515,14.7310831 7.65164541,14.1397524 7.65164541,13.503917 C7.65164541,13.1246856 7.58090072,12.7658099 7.47961416,12.4204429 L16.5828707,6.71772403 C17.2610291,7.33323474 18.1485171,7.7181718 19.1297708,7.7181718 C21.2393931,7.7181718 22.9550279,5.98741996 22.9550279,3.8590242 C22.9550279,1.73078267 21.2393931,0 19.1297708,0 C17.0199652,0 15.3042997,1.73078267 15.3042997,3.8590242 C15.3042997,4.29799618 15.3933267,4.71386763 15.5271424,5.10753294 L6.50704297,10.7572039 C5.81546327,10.0702017 4.86970415,9.64384409 3.82528768,9.64384409 C1.71566546,9.64384409 1.77635684e-15,11.3746268 1.77635684e-15,13.5028375 C1.77635684e-15,15.6311099 1.7156349,17.3620467 3.82528768,17.3620467 C4.59232019,17.3620467 5.3048726,17.1285739 5.9044903,16.7349086 L15.5042436,22.1134489 C15.4132905,22.4433641 15.3492718,22.7829945 15.3492718,23.1409758 C15.3492718,25.2692482 17.0648761,27 19.1746818,27 C21.2843651,27 23,25.2692482 23,23.1409758 C23,21.0126109 21.2862606,19.2828769 19.1755684,19.2828769 L19.1755684,19.2828769 L19.1755684,19.2828769 Z M19.1306269,1.92955838 C20.1855603,1.92955838 21.0433319,2.7950114 21.0433319,3.85905506 C21.0433319,4.92325293 20.1855603,5.78867511 19.1306269,5.78867511 C18.0758769,5.78867511 17.217983,4.92322209 17.217983,3.85905506 C17.217983,2.79498056 18.0758769,1.92955838 19.1306269,1.92955838 L19.1306269,1.92955838 L19.1306269,1.92955838 Z M1.9145699,13.503917 C1.9145699,12.4396882 2.77249436,11.5743894 3.82736662,11.5743894 C4.88211659,11.5743894 5.74001046,12.4396883 5.74001046,13.503917 C5.74001046,14.5679915 4.88211659,15.4334445 3.82736662,15.4334445 C2.77249436,15.4334445 1.9145699,14.5679915 1.9145699,13.503917 L1.9145699,13.503917 L1.9145699,13.503917 Z M19.1755684,25.0713978 C18.1208184,25.0713978 17.2629245,24.2060681 17.2629245,23.1419011 C17.2629245,22.0778574 18.1208184,21.2124044 19.1755684,21.2124044 C20.2305018,21.2124044 21.0882122,22.0778574 21.0882122,23.1419011 C21.0882122,24.2060681 20.2305018,25.0713978 19.1755684,25.0713978 L19.1755684,25.0713978 L19.1755684,25.0713978 Z" id="Shape"></path>
                    </g>
                </g>
            </g>
        </g>
    </g>
</svg>