<?xml version="1.0" encoding="UTF-8" standalone="no"?>
<svg width="70px" height="70px" viewBox="0 0 70 70" version="1.1" xmlns="http://www.w3.org/2000/svg" xmlns:xlink="http://www.w3.org/1999/xlink" xmlns:sketch="http://www.bohemiancoding.com/sketch/ns">
    <!-- Generator: Sketch 3.4.3 (16044) - http://www.bohemiancoding.com/sketch -->
    <title>回到顶部</title>
    <desc>Created with Sketch.</desc>
    <defs></defs>
    <g id="Page-1" stroke="none" stroke-width="1" fill="none" fill-rule="evenodd" sketch:type="MSPage">
        <g id="首页" sketch:type="MSArtboardGroup" transform="translate(-525.000000, -567.000000)">
            <g id="回到顶部" sketch:type="MSLayerGroup" transform="translate(526.000000, 568.000000)">
                <circle id="Oval-20" stroke="#BDBDBD" opacity="0.8" fill="#FFFFFF" sketch:type="MSShapeGroup" cx="34" cy="34" r="34"></circle>
                <g id="iconfont-huidaodingbu(1)" transform="translate(17.000000, 18.062500)" fill="#CBCBCB" sketch:type="MSShapeGroup">
                    <path d="M30.0999075,18.3594767 L17.8004005,6.37173522 C17.6251376,6.11481332 17.3662746,5.90182401 17.0337613,5.78871163 C16.855868,5.72081084 16.6669959,5.69022493 16.4753218,5.6942289 C16.4616553,5.6942289 16.4506192,5.6875 16.4363237,5.6875 C16.4177967,5.6875 16.4027578,5.69556354 16.3842309,5.696787 C16.1974744,5.6942289 16.0132912,5.72214554 15.8415736,5.78732135 C15.5034563,5.90176836 15.2407622,6.11748265 15.064127,6.38102221 L2.77537018,18.3594767 C2.20532276,18.9133046 2.24975313,19.8556295 2.87189341,20.4600633 C3.49466268,21.0642746 4.43359128,21.0802905 5.00381025,20.5265738 C5.04886966,20.4813066 5.09341447,20.4519997 5.13104021,20.4013939 L14.8444337,10.9715267 L14.8602159,33.4359529 C14.8512955,33.4946223 14.8602159,33.5424476 14.8602159,33.601117 C14.8602159,34.3384605 15.5350208,34.9375 16.4157953,34.9375 C17.2965698,34.9375 18.0109447,34.3384605 18.0109447,33.601117 L18.0274702,10.9715266 L27.7428651,20.4013938 C27.7812342,20.4519997 27.8249785,20.4813065 27.871639,20.5265737 C28.4409431,21.0802904 29.3799289,21.0642745 30.0026981,20.4600632 C30.6255817,19.8556295 30.6693831,18.9133046 30.0999075,18.3594767 L30.0999075,18.3594767 Z" id="Shape"></path>
                    <path d="M30.6468411,3.375 L2.17290639,3.375 C1.57574207,3.375 0.90079217,2.6193547 0.90079217,1.68753447 C0.90079217,0.755576513 1.57574207,0 2.17290639,0 L30.6468411,0 C31.2444466,0 31.875,0.755576446 31.875,1.68753447 C31.875,2.6194236 31.2444466,3.375 30.6468411,3.375 Z" id="Shape"></path>
                </g>
            </g>
        </g>
    </g>
</svg>