<?xml version="1.0" encoding="UTF-8" standalone="no"?>
<svg width="20px" height="20px" viewBox="0 0 20 20" version="1.1" xmlns="http://www.w3.org/2000/svg" xmlns:xlink="http://www.w3.org/1999/xlink" xmlns:sketch="http://www.bohemiancoding.com/sketch/ns">
    <!-- Generator: Sketch 3.4.4 (17249) - http://www.bohemiancoding.com/sketch -->
    <title>Rectangle 346</title>
    <desc>Created with Sketch.</desc>
    <defs></defs>
    <g id="Page-1" stroke="none" stroke-width="1" fill="none" fill-rule="evenodd" sketch:type="MSPage">
        <g id="配镜页面" sketch:type="MSArtboardGroup" transform="translate(-585.000000, -663.000000)" fill="#717171">
            <g id="购买数量" sketch:type="MSLayerGroup" transform="translate(0.000000, 629.000000)">
                <g id="数量选择" transform="translate(481.000000, 23.000000)" sketch:type="MSShapeGroup">
                    <path d="M112.927488,19.9130435 L104.894815,19.9130435 C104.392268,19.9130435 104,20.312094 104,20.8043478 C104,21.3000335 104.400622,21.6956522 104.894815,21.6956522 L112.927488,21.6956522 L112.927488,29.728325 C112.927488,30.2308716 113.326538,30.6231398 113.818792,30.6231398 C114.314478,30.6231398 114.710096,30.2225175 114.710096,29.728325 L114.710096,21.6956522 L122.742769,21.6956522 C123.245316,21.6956522 123.637584,21.2966016 123.637584,20.8043478 C123.637584,20.3086621 123.236962,19.9130435 122.742769,19.9130435 L114.710096,19.9130435 L114.710096,11.8803707 C114.710096,11.3778241 114.311046,10.9855559 113.818792,10.9855559 C113.323106,10.9855559 112.927488,11.3861781 112.927488,11.8803707 L112.927488,19.9130435 Z" id="Rectangle-346"></path>
                </g>
            </g>
        </g>
    </g>
</svg>