<?xml version="1.0" encoding="UTF-8" standalone="no"?>
<svg width="100px" height="100px" viewBox="0 0 100 100" version="1.1" xmlns="http://www.w3.org/2000/svg" xmlns:xlink="http://www.w3.org/1999/xlink" xmlns:sketch="http://www.bohemiancoding.com/sketch/ns">
    <!-- Generator: Sketch 3.4.4 (17249) - http://www.bohemiancoding.com/sketch -->
    <title>微博</title>
    <desc>Created with Sketch.</desc>
    <defs></defs>
    <g id="Page-1" stroke="none" stroke-width="1" fill="none" fill-rule="evenodd" sketch:type="MSPage">
        <g id="分享" sketch:type="MSArtboardGroup" transform="translate(-86.000000, -1293.000000)">
            <g id="微博" sketch:type="MSLayerGroup" transform="translate(86.000000, 1293.000000)">
                <g id="Page-1" sketch:type="MSShapeGroup">
                    <g>
                        <g id="未登录状态">
                            <g id="微博">
                                <circle id="Oval-7" fill="#FE5B5E" cx="50" cy="50" r="50"></circle>
                                <g id="iconfont-weibo" transform="translate(25.555556, 26.666667)" fill="#FFFFFF">
                                    <path d="M38.6278347,20.6018276 C36.5996609,20.207423 37.5864573,19.1132323 37.5864573,19.1132323 C37.5864573,19.1132323 39.5709553,15.8346081 37.193597,13.4509427 C34.2456149,10.4987741 27.0838293,13.8265529 27.0838293,13.8265529 C24.3479394,14.6770836 25.0743499,13.4384316 25.4609786,11.3304547 C25.4609786,8.84686753 24.61133,4.64353593 17.3249151,7.12628903 C10.046234,9.62244286 3.79490943,18.3681283 3.79490943,18.3681283 C-0.551423829,24.1796611 0.0253758293,28.6711923 0.0253758293,28.6711923 C1.11037346,38.5868021 11.6254088,41.3087113 19.8035903,41.9529483 C28.4074029,42.6293247 40.0214566,38.9812067 43.5415649,31.4866843 C47.0631753,23.9797063 40.6637979,21.0086877 38.6278347,20.6018276 L38.6278347,20.6018276 L38.6278347,20.6018276 Z M20.441258,39.1569734 C11.8982578,39.5568274 4.99368691,35.265251 4.99368691,29.5536956 C4.99368691,23.8360237 11.8982578,19.2506317 20.441258,18.856227 C28.9874296,18.4618224 35.90591,21.9904456 35.90591,27.696385 C35.90591,33.4071619 28.9873739,38.7680181 20.441258,39.1569734 L20.441258,39.1569734 L20.441258,39.1569734 Z" id="Shape"></path>
                                    <path d="M19.2106349,23.0084039 C10.4925177,23.9902987 11.4988127,31.8483846 11.4988127,31.8483846 C11.4988127,31.8483846 11.4102113,34.3366393 13.8374038,35.6040147 C18.9385624,38.2627559 24.1916254,36.6528361 26.8466179,33.355503 C29.5016101,30.0565983 27.9446764,22.033337 19.2106349,23.0084039 L19.2106349,23.0084039 L19.2106349,23.0084039 Z M17.0113551,34.0375566 C15.384794,34.2210489 14.0715282,33.3182734 14.0715282,32.0075449 C14.0715282,30.7028856 15.2376331,29.3366649 16.8657754,29.1729526 C18.7359481,29.0017617 19.9543443,30.0384441 19.9543443,31.3491187 C19.9543443,32.653778 18.634754,33.860188 17.0113551,34.0375566 L17.0113551,34.0375566 L17.0113551,34.0375566 Z M22.1520429,29.8245506 C21.5998794,30.2210694 20.922635,30.1662819 20.6314759,29.6904809 C20.3277239,29.2270356 20.4416239,28.4833121 20.9985871,28.0929169 C21.6440954,27.6300134 22.3165399,27.7633786 22.6076991,28.2275826 C22.9004394,28.7025707 22.6916134,29.4157844 22.1520429,29.8245506 L22.1520429,29.8245506 L22.1520429,29.8245506 Z" id="Shape"></path>
                                    <path d="M43.1436686,17.8319783 C43.8128584,17.8319783 44.38263,17.2676287 44.4776367,16.5314913 C44.4897411,16.4765119 44.4957666,16.428443 44.4957666,16.3665529 C45.5102301,5.97030066 37.0206274,7.75960947 37.0206274,7.75960947 C36.2669753,7.75960947 35.6639566,8.45452761 35.6639566,9.32123366 C35.6639566,10.1742407 36.2669753,10.8691588 37.0206274,10.8691588 C43.1195133,9.33499381 41.7734944,16.2841754 41.7734944,16.2841754 C41.7734407,17.1439709 42.386896,17.8319783 43.1436686,17.8319783 L43.1436686,17.8319783 L43.1436686,17.8319783 Z" id="Shape"></path>
                                    <path d="M41.8698774,0.346508457 C38.8379267,-0.386921809 35.7220991,0.24516797 34.8489476,0.41807661 C34.7820127,0.424546393 34.7181331,0.490503547 34.6559199,0.503328581 C34.626313,0.509798363 34.607649,0.5419181 34.607649,0.5419181 C33.7453293,0.793666166 33.1165311,1.61710056 33.1165311,2.59019823 C33.1165311,3.7498311 34.025511,4.70357671 35.1616801,4.70357671 C35.1616801,4.70357671 36.263632,4.55082167 37.0121906,4.24840337 C37.7545833,3.93957251 44.0300099,4.018412 47.1490591,9.42890601 C48.8487024,13.3774061 47.8961179,16.0199309 47.7778571,16.4445303 C47.7778571,16.4445303 47.3731934,17.4707029 47.3731934,18.4806724 C47.3731934,19.6468324 48.2821176,20.3794039 49.4088993,20.3794039 C50.3520963,20.3794039 51.1427599,20.2466306 51.3746707,18.5997619 L51.387169,18.5997619 C54.7351296,7.07105079 47.2923161,1.65402974 41.8698774,0.346508457 L41.8698774,0.346508457 L41.8698774,0.346508457 Z" id="Shape"></path>
                                </g>
                            </g>
                        </g>
                    </g>
                </g>
            </g>
        </g>
    </g>
</svg>