<svg xmlns="http://www.w3.org/2000/svg" preserveAspectRatio="xMidYMid" width="20" height="24" viewBox="0 0 20 24"><defs><style>.cls-2 { fill: #aaaaaa; }</style></defs><path d="M7.2 23.252c-.23 0-.458-.096-.623-.286C4.412 20.466.91 20.44.837 20.44H.832c-.457 0-.83-.38-.833-.85-.005-.474.363-.86.822-.865.173-.01 4.31-.005 6.997 3.097.305.354.276.896-.067 1.212-.16.146-.357.218-.554.218zm5.582-.002c-.203 0-.406-.075-.567-.23-.337-.32-.357-.864-.044-1.212 2.783-3.098 6.836-3.094 6.996-3.088.46.006.83.394.824.867-.005.472-.376.85-.833.85h-.006c-.068 0-3.5.024-5.758 2.538-.163.184-.387.275-.61.275zm-1.468-4.364H8.676c-.084 0-.166-.013-.243-.04-2.817-.37-5.21-2.056-6.753-4.757C-.11 10.95-.52 6.885.66 3.97c.128-.313.423-.52.752-.527l.25-.002c1.587 0 3.068.31 4.416.92.974-1.836 2.086-3.23 3.312-4.15.065-.057.14-.107.22-.142.26-.114.558-.09.793.068.04.028.08.06.114.093 1.23.93 2.31 2.304 3.29 4.178 1.375-.64 2.89-.964 4.517-.964l.255.002c.33.007.623.214.75.527 1.182 2.915.772 6.98-1.02 10.118-1.543 2.7-3.935 4.386-6.75 4.76-.08.022-.16.036-.246.036zm-2.49-1.717h2.342l.054-.01c3.01-.345 4.737-2.335 5.655-3.942 1.406-2.464 1.832-5.684 1.106-8.055-1.514.05-2.902.434-4.13 1.14-.2.116-.438.14-.656.07-.218-.07-.398-.23-.5-.44-.843-1.782-1.748-3.09-2.752-3.984-1.005.89-1.93 2.21-2.756 3.93-.1.21-.278.368-.495.438-.215.072-.448.048-.648-.064-1.202-.674-2.558-1.04-4.033-1.09-.727 2.37-.3 5.59 1.106 8.054.918 1.607 2.643 3.597 5.653 3.942l.054.01zM9.99 24c-.46 0-.834-.384-.834-.86v-5.113c0-.474.373-.858.833-.858.458 0 .83.383.83.857v5.114c0 .476-.372.86-.83.86z" id="path-1" class="cls-2" fill-rule="evenodd"/></svg>